<?xml version="1.0" ?><svg viewBox="0 0 1000 1000" xmlns="http://www.w3.org/2000/svg"><path d="m265.83 638.56h6.67v289.37h-6.67z" stroke="#000" stroke-miterlimit="10" stroke-width=".9"/><path d="m213.08 919.72h112.16a15.67 15.67 0 0 1 15.67 15.67v12.4a0 0 0 0 1 0 0h-143.49a0 0 0 0 1 0 0v-12.4a15.67 15.67 0 0 1 15.66-15.67z" stroke="#000" stroke-miterlimit="10" stroke-width="1.79"/><path d="m450.98 649.23h-343.48l-82.5-537.21h343.49z"/><path d="m451 647.88h-338.29a23.87 23.87 0 0 0 -4.63 0 2.81 2.81 0 0 1 -.58 0l1.29 1-2.21-14.42-6-39.06-8.9-57.95-10.82-70.45-11.86-77.18-12-77.88-11.14-72.87-9.42-61.37-6.8-44.27-2.11-13.71a71.94 71.94 0 0 0 -1.1-7.16c-.07-.29-.09-.6-.13-.89l-1.3 1.7h338.27a23.87 23.87 0 0 0 4.63 0 2.91 2.91 0 0 1 .59 0l-1.3-1 2.22 14.42 6 39.06 8.9 57.95 10.82 70.46 11.87 77.17 12 77.89 11.19 72.87 9.43 61.36 6.8 44.27c1.06 6.95 1.93 14 3.2 20.87.06.3.09.6.14.9.26 1.7 2.85 1 2.59-.72l-2.21-14.42-6-39.06-8.9-57.95-10.89-70.44-11.85-77.18-12-77.88-11.19-72.87-9.43-61.37-6.8-44.27c-1.06-7-2-13.94-3.2-20.87-.05-.3-.09-.6-.14-.89a1.34 1.34 0 0 0 -1.29-1h-329.39c-4.46 0-9-.29-13.48 0h-.58a1.37 1.37 0 0 0 -1.3 1.7l2.22 14.42 6 39.06 8.9 57.95 10.82 70.46 11.85 77.16 12 77.89 11.19 72.87 9.42 61.36 6.8 44.27c1.07 6.95 2 13.94 3.2 20.87.06.3.1.6.14.9a1.35 1.35 0 0 0 1.3 1h329.38c4.47 0 9 .24 13.48 0h.58a1.35 1.35 0 0 0 .02-2.7z"/><path d="m465.92 650.48h-343.49l-82.5-537.21h343.49z" fill="#fff"/><path d="m465.92 647.88h-338.28a23.87 23.87 0 0 0 -4.63 0 2.81 2.81 0 0 1 -.58 0l1.3 1-2.22-14.42-6-39.06-8.9-57.95-10.82-70.45-11.85-77.18-11.94-77.88-11.21-72.87-9.42-61.37-6.8-44.27-2.1-13.71c-.36-2.34-.51-4.86-1.1-7.16a6.85 6.85 0 0 1 -.14-.89l-1.3 1.7h338.28a23.87 23.87 0 0 0 4.63 0 2.81 2.81 0 0 1 .58 0l-1.3-1 2.22 14.42 6 39.06 8.9 57.95 10.82 70.46 11.85 77.16 12 77.89 11.19 72.87 9.42 61.36 6.8 44.27c1.07 6.95 1.93 14 3.2 20.87.06.3.1.6.14.9.26 1.7 2.85 1 2.59-.72l-2.25-14.41-6-39.06-8.9-57.95-10.82-70.44-11.85-77.16-12-77.88-11.19-72.87-9.42-61.37-6.8-44.27c-1.07-7-2-13.94-3.21-20.87-.05-.3-.09-.6-.13-.89a1.35 1.35 0 0 0 -1.3-1h-329.38c-4.46 0-9-.29-13.48 0h-.59a1.36 1.36 0 0 0 -1.29 1.7l2.21 14.42 6 39.06 8.9 57.95 10.82 70.46 11.85 77.16 12 77.89 11.19 72.87 9.39 61.35 6.8 44.27c1.07 6.95 2 13.94 3.21 20.87 0 .3.09.6.13.9a1.35 1.35 0 0 0 1.3 1h329.41c4.47 0 9 .24 13.48 0h.59a1.35 1.35 0 0 0 0-2.71z"/><path d="m635.29 699.21-34.87 207.79c-1.51 9-3.54 18.89-10.82 24.39a44.6 44.6 0 0 1 -3.81 2.47 7 7 0 0 0 2.47 13 146.91 146.91 0 0 0 40.5.55c4.74-.6 9.65-1.51 13.46-4.38 7.5-5.65 5-14.46 6.19-23.78 4.05-32.29 25-62.85 37.23-93a275.32 275.32 0 0 0 12-168.89"/><path d="m634.33 698.94-11.33 67.06-11.32 66.75q-5.68 33.53-11.3 67.07c-1.45 8.64-2.23 18.39-7.18 25.89a18.93 18.93 0 0 1 -4.21 4.58c-1.68 1.3-3.72 2.14-5.29 3.58a8.36 8.36 0 0 0 -2.28 8.28 8.22 8.22 0 0 0 6.37 5.9 115.24 115.24 0 0 0 16 1.61 149 149 0 0 0 16.64-.17 84.21 84.21 0 0 0 14.92-2c4.2-1.07 8.27-3.11 10.85-6.7 2.25-3.12 2.84-7 3-10.76.23-4.34.16-8.63.81-12.94a110.6 110.6 0 0 1 3.06-14.09c5.49-19.14 15-36.79 23.76-54.59 8.84-18 16.24-36.53 21.27-56a278.58 278.58 0 0 0 8.67-60.1 275.15 275.15 0 0 0 -4.64-60.83c-.92-4.87-2-9.7-3.19-14.51a1.4 1.4 0 0 0 -2.7.74 274.43 274.43 0 0 1 2.91 118.78 263 263 0 0 1 -17.74 56.61c-7.9 17.67-17.5 34.55-24.82 52.49a143.29 143.29 0 0 0 -8.43 27.28 80.15 80.15 0 0 0 -1.41 13c-.09 3.78 0 7.81-1.5 11.35-1.74 4.07-5.64 6.42-9.75 7.6-4.88 1.4-10.12 1.76-15.16 2.1a146.2 146.2 0 0 1 -16.08.2 101 101 0 0 1 -16-1.57 5.76 5.76 0 0 1 -4.6-6.21c.35-4 4.65-5.24 7.34-7.42 6.38-5.17 8.66-13.65 10.1-21.37 2-10.54 3.57-21.16 5.34-31.74q2.73-16.26 5.44-32.54l10.86-65.39 10.85-65.4 2.65-16c.21-1.25-1.7-1.79-1.91-.53z"/><path d="m795.9 673.23c9.07 77.84 43.22 151.61 70.55 225.06 3.09 8.29 6.33 16.72 6.78 25.55a32.33 32.33 0 0 1 -3.23 16.16 5.42 5.42 0 0 0 5 7.77 157.25 157.25 0 0 0 24.69-2.4 31.06 31.06 0 0 0 15.7-7.37c14.14-13 4.75-32.24-.16-48.81-7.25-24.42-8.87-60.78-8.5-86.25.47-32.51 3.43-54.9-2.6-86.85-5.78-30.68-15.06-64.56-42-80.39"/><path d="m794.92 673.23a453.8 453.8 0 0 0 14 69.53c6.41 23 14.19 45.57 22.47 67.94s17.18 44.62 25.76 66.93q3.21 8.34 6.36 16.71c2.09 5.59 4.29 11.16 6 16.89a47.87 47.87 0 0 1 2.26 17.45 30.93 30.93 0 0 1 -1.88 8.27c-.84 2.17-2.1 4-1.71 6.44a7 7 0 0 0 2.89 4.55c2.12 1.48 4.59 1.23 7 1.13a159.74 159.74 0 0 0 18.14-1.74c5.46-.84 10.75-2.05 15.53-5a26 26 0 0 0 9.92-10.44c4.05-8.21 2.52-17.67.16-26.14-2.55-9.18-6-18-8-27.38-4.31-20.26-5.52-41.22-5.81-61.88-.29-21.51 1.54-43 1.1-64.48a247 247 0 0 0 -9.48-61.87c-5-17.56-12.51-35.36-26.18-48a63.43 63.43 0 0 0 -10.56-7.87 1.52 1.52 0 0 0 -1.52 2.62c15.68 9.3 25.42 25.16 31.61 41.91a202.93 202.93 0 0 1 7.6 26.83 247.62 247.62 0 0 1 5 31.34c1.9 21.71.08 43.5-.25 65.24a410.07 410.07 0 0 0 3 59.14 182.24 182.24 0 0 0 5.52 27.87c2.63 8.95 6.43 17.79 7.4 27.15a26.78 26.78 0 0 1 -1.25 12.78 22.67 22.67 0 0 1 -9.38 10.75c-4.73 2.91-10 4-15.4 4.82a154.72 154.72 0 0 1 -18.62 1.61c-2.22.06-4.37-.14-5.37-2.44s.62-4.2 1.38-6.19a35 35 0 0 0 1.9-15.87c-1.13-11.47-6.08-22.39-10.14-33.07-8.27-21.78-16.93-43.41-25.27-65.15s-16.42-43.68-23.34-66a506 506 0 0 1 -16.41-67.36q-1.41-8.5-2.44-17.07c-.14-1.24-2.1-1.26-2 0z"/><g fill="#18c4ff"><path d="m710.67 181c-13.11 1.2-24.1 11.23-30 23s-7.53 25.14-8.82 38.24c-2.6 26.41 3.07 52.93 2.68 79.46-.37 25.13.24 50.4-3.42 75.27-3.43 23.37-10.59 46-18 68.43-19.4 58.3-48.21 116.1-77.76 169.95-7.84 14.3-16.47 29.13-16.69 45.43-.26 19.5 11.7 37.19 25.91 50.54a145.9 145.9 0 0 0 42.33 27.68c27.18 11.66 57.26 14.8 85.12 24.73 14.53 5.27 28.55 12.27 43.78 14.76 13.58 2.21 27.47.67 41.15-.88 28.92-3.27 59.21-7.05 83-23.86 15.52-11 27.7-27.21 45.48-33.94 7.48-2.83 15.61-3.81 22.88-7.12 18.45-8.41 27.49-30.47 26.67-50.72s-9.51-39.25-18.05-57.64l-45.18-97.25c-20.35-43.82-40.76-87.76-55.61-133.74a593 593 0 0 1 -26-125.8c-2.13-22.34-3.1-45.28-11.61-66s-32.37-30.2-54.75-31.85"/><path d="m710.67 179.93c-10.6 1-19.59 7-26 15.3-7.67 9.84-10.96 22.13-12.67 34.27a206 206 0 0 0 -1.72 42c.86 14.89 2.67 29.73 2.88 44.66s-.08 29.69-.53 44.48a291.22 291.22 0 0 1 -4.35 44.79c-5.26 28.14-14.69 55.72-24.7 82.49-10.3 27.51-22.28 54.37-35.19 80.75-12.5 25.54-26.28 50.36-39.59 75.47-5.85 11-11.18 22.84-11.63 35.52-.43 11.72 3.62 23.1 9.77 32.93 13.11 20.94 35 36.92 57.24 46.89 25.11 11.22 52.6 14.81 78.74 22.83 13 4 25.38 9.87 38.35 14.06 13.49 4.35 27.11 5.26 41.19 4.15 13.06-1 26.17-2.62 39.12-4.65 12.47-1.94 24.91-4.61 36.72-9.15a105.67 105.67 0 0 0 30.47-18.06c9.17-7.74 17.55-16.57 27.84-22.88a66.14 66.14 0 0 1 18-7.26c6-1.58 12.14-3.08 17.6-6.2 8.83-5.06 15.3-13.4 19.26-22.66 9.83-23 3.43-47.78-5.89-69.82-11.45-27.08-24.61-53.53-37-80.2s-24.91-53.22-36.88-80-23.27-54.14-32.54-82.1a592.9 592.9 0 0 1 -21.2-83.92q-3.84-21.72-6-43.68c-1.34-13.46-2.16-27-4.3-40.36-1.93-12-4.62-25.4-11.4-35.74-5.53-8.44-13.9-14.6-23-18.67a89.24 89.24 0 0 0 -29.39-7.09c-2-.16-2 3 0 3.16 20.36 1.59 43.56 9.53 52.74 29.41 5.66 12.26 7.93 26.22 9.49 39.52 1.58 13.49 2.42 27 4 40.53 6.53 55.37 21.23 109 42 160.67 21.2 52.54 46.31 103.53 70.18 154.89 6 12.92 12.14 25.78 18 38.79 5.6 12.51 10.7 25.5 12.6 39.16 2.89 20.86-3.52 46.14-23.65 56.45-6 3.09-12.77 4.27-19.23 6.15a60.63 60.63 0 0 0 -15.62 7c-9.57 6-17.56 14.18-26.1 21.54a104.16 104.16 0 0 1 -31.66 19c-11.36 4.26-23.28 6.81-35.23 8.68-13.06 2-26.3 3.64-39.48 4.63-14.23 1.06-27.82-.11-41.38-4.68-12.38-4.17-24.24-9.71-36.74-13.56-12.87-4-26-6.84-39.11-10.09s-26.41-6.93-38.87-12.49a144.8 144.8 0 0 1 -32.81-20.2c-18.31-15-35.92-36.86-32.26-62.09 1.88-13 8.44-24.68 14.67-36q9.86-17.89 19.33-36c13-25 25.37-50.29 36.52-76.15a796.36 796.36 0 0 0 28.82-77.74 372.88 372.88 0 0 0 10.63-40.66 278.68 278.68 0 0 0 4.54-41.15c.62-14.43.52-28.86.7-43.29.18-14.14-1.1-28.17-2.2-42.25s-1.63-28.27-.14-42.45c1.37-13.08 3.44-26.82 10.5-38.2 5.84-9.43 15.28-17.22 26.56-18.58 1.34-.17 1.39-2.29 0-2.16z"/><path d="m706.86 179.83c-20.5 11.1-37.27 28.1-51.53 46.55s-26.28 38.51-39.5 57.71c-7.56 11-15.64 21.83-26 30.28-17.3 14.17-39.74 20.62-61.94 23.28s-44.66 1.88-67 3.42c-3.06.21-6.24.5-8.88 2.08-6.7 4-6.52 13.67-5 21.32 3.26 16.54 9 32.88 19.13 46.34s25.09 23.83 41.8 26.05a72.1 72.1 0 0 0 24-1.35c21.06-4.35 40.41-14.51 59.42-24.51 10-5.28 20-10.61 28.73-17.82 10.09-8.39 18-19.07 25.41-29.92a522.21 522.21 0 0 0 40-69.5"/><path d="m706.35 178.94c-19.25 10.15-35.17 25.51-48.8 42.29-15.08 18.56-27.44 39.1-40.88 58.84-6.45 9.48-13.1 18.92-21.23 27.06a89.4 89.4 0 0 1 -26.65 18.23c-21 9.47-44.37 11.64-67.14 12.49-12.71.48-25.43.57-38.13 1.34-5.17.31-10.87.44-14.74 4.38-3 3.07-4.11 7.47-4.28 11.67-.19 4.76.78 9.47 1.82 14.08a140.27 140.27 0 0 0 4.59 15.95 97 97 0 0 0 15.74 28.82 70.68 70.68 0 0 0 23.53 19 58.94 58.94 0 0 0 31.82 5.54c23.82-2.32 45.85-13.63 66.7-24.62 10.23-5.4 20.64-10.7 29.83-17.8 9-6.93 16.32-15.6 23-24.74a482.93 482.93 0 0 0 37.47-61.31q4-7.76 7.81-15.66c.87-1.82-1.83-3.41-2.7-1.59a527.21 527.21 0 0 1 -34.76 61.87c-6.21 9.48-12.58 19-20.14 27.44a93 93 0 0 1 -12.21 11.53 121 121 0 0 1 -14.39 9.41c-10 5.75-20.37 11.09-30.75 16.17a184.56 184.56 0 0 1 -32.44 12.78c-11.23 3.07-23.27 4.95-34.81 2.52a59.66 59.66 0 0 1 -26.18-13.24c-16.44-14-25-34.68-29.3-55.4-1.49-7.13-3.25-19.29 5.78-22.25a32.92 32.92 0 0 1 8.34-1.11c3.15-.2 6.31-.35 9.46-.48 6.15-.25 12.29-.41 18.44-.58 23-.65 46.38-1.67 68.37-9.08a100.66 100.66 0 0 0 28.08-14.31c8.85-6.58 16.14-14.84 22.71-23.64 14.08-18.84 25.87-39.29 39.6-58.38 12.63-17.55 26.81-34.35 44.44-47.08a136.57 136.57 0 0 1 13-8.37c1.15-.65.13-2.38-1-1.77z"/></g><path d="m444.44 343.4a45.24 45.24 0 0 0 -35.84 16.71c-1.58 2-3 4.9-1.37 6.85s5 1 7.44-.26a65 65 0 0 0 -5.91 9.31 8.09 8.09 0 0 0 -1.27 4.82c.26 1.67 2 3.22 3.56 2.67a4.48 4.48 0 0 0 1.55-1.08l5.32-5a24.46 24.46 0 0 0 -5 10.71 3.83 3.83 0 0 0 .47 3.29c1.28 1.41 3.59.44 5.11-.69a43.3 43.3 0 0 0 6.38-5.8c-3.08 3-6.38 7.5-4 11.06 2 3 6.77 2.61 9.79.57s5.13-5.2 8.13-7.25c4-2.73 9-3.2 13.7-4.42a41.85 41.85 0 0 0 19.09-11c1.47-1.49 2.74-4.2 1-5.4" fill="#fff"/><path d="m444.44 342.42a43 43 0 0 0 -23.87 5.72 46 46 0 0 0 -9.84 7.44c-2.55 2.53-6.34 6.25-5.59 10.24a4.66 4.66 0 0 0 4.25 3.74 11.22 11.22 0 0 0 6-1.59l-2-2a67.1 67.1 0 0 0 -5.14 7.89c-1.31 2.36-3 5.25-2 8 .77 2.21 3.22 3.86 5.53 2.88a12.74 12.74 0 0 0 3.42-2.84l3.72-3.53-2-2a27.48 27.48 0 0 0 -4.38 7.84c-.81 2.29-2 5.72-.34 7.89s4.53 1.45 6.5.21a36.82 36.82 0 0 0 7.25-6.4 1.45 1.45 0 0 0 -2.05-2.05c-3.45 3.35-8 9.79-3.22 14.06 4 3.6 9.88 1 13.27-2.12 2.19-2 4.07-4.39 6.69-5.88a29.63 29.63 0 0 1 8.44-2.7 48.32 48.32 0 0 0 16.65-6.54c3.28-2.15 13.55-9.23 7.71-13.65-1.44-1.09-3.31 1.33-1.94 2.5 2.23 1.91-6.86 8.06-8.26 8.94a43.1 43.1 0 0 1 -13.77 5.53c-5 1.11-9.75 2.23-13.62 5.74-3.12 2.82-6 7.22-10.76 6.94a3.49 3.49 0 0 1 -3.5-4c.36-2.65 2.52-5 4.35-6.75l-2.05-2.05c-.87.95-8.4 8.91-9.57 6.26-.36-.81.08-2.1.28-2.91a25.88 25.88 0 0 1 .88-2.84 22.78 22.78 0 0 1 3.45-6c1.12-1.4-.65-3.3-2-2-1.77 1.67-3.53 3.37-5.34 5-.73.66-1.36 1.1-2.15.23a2.65 2.65 0 0 1 -.39-2.47c.48-2.12 1.91-4.18 3-6a66.5 66.5 0 0 1 3.88-5.7c1-1.26-.83-2.6-2-2a8.29 8.29 0 0 1 -4.22 1.22c-1.71-.16-1.94-1.7-1.47-3.07a13 13 0 0 1 2.78-4.11 44.16 44.16 0 0 1 3.61-3.63 45.58 45.58 0 0 1 18.08-9.76 49.54 49.54 0 0 1 11.73-1.71 1 1 0 0 0 0-2z"/><path d="m330 303.35c-10.92-1.16-22.08-2.39-32-7.14-16.89-8.11-28.09-26.8-27.28-45.52.11-2.41 1.58-5.66 3.87-4.86a4.94 4.94 0 0 1 1.5 1.08c4.31 3.93 10.39 5.26 16.21 5.61s11.72-.14 17.46.86a34.43 34.43 0 0 1 28.19 38.84c-.21 1.46-.5 3 .17 4.33a6.38 6.38 0 0 0 2.42 2.24c23.17 14.7 51.08 20.8 73.78 36.23 13.07 8.87 23.95 20.53 34.68 32.11 5 5.45 10.18 11 13.11 17.87-1.68 2.28-5.24 1.34-7.83.17l-20.5-9.17c-19.16-8.62-38.39-17.29-56.09-28.61s-33.92-25.49-45.13-43.26"/><path d="m330 302.34c-11.63-1.43-23.91-2.87-34.21-8.9a48.47 48.47 0 0 1 -19.37-21.65 46.76 46.76 0 0 1 -4-14.1 33.64 33.64 0 0 1 -.22-7.3 5.37 5.37 0 0 1 1-2.76c.78-.91 1.39 0 2.1.6 9.4 8.13 22.35 4.72 33.55 6.5a33 33 0 0 1 27.93 34.19c-.1 2.55-1.15 5.54-.09 8s3.92 3.65 6 4.9c19.74 11.69 42.1 17.93 62.13 29.05a133.26 133.26 0 0 1 28 21.37c4.28 4.16 8.4 8.49 12.48 12.85s8.08 8.42 11.46 13.15a42.91 42.91 0 0 1 4.26 7.37l.18-1.42c-1.26 1.58-3.42 1.07-5.1.5-2.47-.85-4.84-2.11-7.21-3.19l-15.4-7c-9.72-4.4-19.43-8.82-29-13.6-17.92-9-35.36-19.4-50.16-33a122.94 122.94 0 0 1 -20.68-24.48c-.95-1.48-3.32-.11-2.37 1.39 10.72 16.69 25.53 30.19 41.87 41.19 18.2 12.25 38.33 21.3 58.29 30.23l18.13 8.11c3.57 1.6 10 5.53 13.35 1.47a1.26 1.26 0 0 0 .18-1.42c-2.35-5.51-6.09-10.23-10.05-14.67s-8.27-9-12.52-13.46c-8.5-8.85-17.53-17.29-27.85-24-20.08-13-43.55-19.15-64.44-30.58a74.17 74.17 0 0 1 -7.63-4.55 3.12 3.12 0 0 1 -1.48-3.12c.09-1.44.4-2.85.5-4.29a35.9 35.9 0 0 0 -27.2-37.31c-6.45-1.59-13.1-1-19.66-1.38-5.35-.28-11.17-1.32-15.35-4.93a6.29 6.29 0 0 0 -3-1.85 3.61 3.61 0 0 0 -3.09 1.05c-1.71 1.68-2.09 4.2-2.13 6.47a48 48 0 0 0 2.15 14.92 51.57 51.57 0 0 0 17.05 25.13c9.29 7.36 20.78 10.23 32.35 11.59 3.06.36 6.14.64 9.22.92 1.3.11 1.26-1.86 0-2z"/><path d="m711.47 160.05 4.71 21.58a3.66 3.66 0 0 0 .51 1.37 3.43 3.43 0 0 0 2.5 1 42.88 42.88 0 0 0 32.81-10.37 8.43 8.43 0 0 0 2.94-4.1 9.6 9.6 0 0 0 -.66-5 217.58 217.58 0 0 1 -8.67-40.2" fill="#fff"/><path d="m682.9 94.63c.39-3.48-.42-28.24 26.16-29.69a43.26 43.26 0 0 1 28 8.69 75 75 0 0 1 7.18 6c24.48 23.3 1.31 77.15-33.75 79.74-21.99 1.63-27.49-19.85-28.92-37.62-.71-9.03.31-18.11 1.33-27.12z" fill="#fff"/><path d="m710.44 158.06c-5.19.36-10.35-.56-14.64-3.64-3.83-2.73-6.47-6.88-8.29-11.15a60.08 60.08 0 0 1 -3.88-15 97.32 97.32 0 0 1 -.63-21.1c.35-4.91 1.06-9.78 1.38-14.7a41.49 41.49 0 0 1 1.15-7.64c2-7.66 6.79-14.08 14.39-16.81 13.31-4.77 28.14 0 38.73 8.55 1.58 1.28 3.11 2.63 4.59 4 1.25 1.19 3.16-.71 1.9-1.9-5.84-5.52-12.37-10.22-20-12.85a42.2 42.2 0 0 0 -21.52-1.61 24.84 24.84 0 0 0 -19.66 16.65 39.19 39.19 0 0 0 -2.06 9.52c-.35 3.36-.62 6.73-1 10.1-1.4 13.54-1.53 27.77 3 40.8a33.23 33.23 0 0 0 7.81 13.15 22.76 22.76 0 0 0 14.18 6.27 31.27 31.27 0 0 0 4.54 0c1.72-.12 1.73-2.8 0-2.69z"/><path d="m700.61 108.09c-.36 1.88-.74 3.77-1.2 5.63-.07.3-.09.51-.3.68s-.73.41-1.06.64a6.39 6.39 0 0 0 -1.85 1.96 5.65 5.65 0 0 0 -.37 5 6.08 6.08 0 0 0 1.37 2c.5.47 1.39.86 1.7 1.26a1.8 1.8 0 0 0 2.53 0 1.84 1.84 0 0 0 0-2.54c-.72-.89-1.93-1-2.35-2.16a2.49 2.49 0 0 1 .9-2.81 4 4 0 0 0 1.41-1.74 9.26 9.26 0 0 0 .44-2.09c.21-1.77.38-3.55.62-5.33a1 1 0 0 0 -.67-1.17 1 1 0 0 0 -1.17.67z"/><path d="m744.47 111.65a2.13 2.13 0 0 0 -1-.58 2.33 2.33 0 0 0 -1.2 0 3 3 0 0 0 -1.71 1 6 6 0 0 0 -1.07 1.88 2 2 0 0 0 -.1.6 1.52 1.52 0 0 0 .07.6 1.55 1.55 0 0 0 1.68 1.13 1.87 1.87 0 0 0 1.37-1.76 2.58 2.58 0 0 0 0-.62 1.94 1.94 0 0 0 -.21-.85 1.62 1.62 0 0 0 -.6-.56 1.31 1.31 0 0 0 -1.17-.07 1.37 1.37 0 0 0 -.76.85 1.57 1.57 0 0 0 0 .91 2.3 2.3 0 0 1 .06.28v-.37a2.54 2.54 0 0 1 0 .39v-.36a2 2 0 0 1 -.11.42l.13-.32v.09l1.14-.66h.01.35l.31.13.27.2h-.06l.21.26a.25.25 0 0 1 0-.07l.13.31a.75.75 0 0 1 0-.16v.35a1.41 1.41 0 0 1 0-.29v.34a4 4 0 0 1 .29-.87l-.13.29a3.6 3.6 0 0 1 .46-.81l-.18.24a1.85 1.85 0 0 1 .36-.38l-.23.18a1.69 1.69 0 0 1 .41-.24l-.26.11a2.26 2.26 0 0 1 .58-.16h-.28a1.53 1.53 0 0 1 .37 0h-.26a1.25 1.25 0 0 1 .32.08l-.23-.09.15.07a.92.92 0 0 0 1.19-.23.94.94 0 0 0 -.07-1.22z"/><path d="m710.56 131.09a9.74 9.74 0 0 1 -1.77 1h-.11c-.11.05-.08 0 .06 0a1.57 1.57 0 0 0 -.23.09l-.49.18q-.48.15-1 .27a1.07 1.07 0 1 0 .58 2.07 11.17 11.17 0 0 0 4.12-2.16.92.92 0 0 0 .29-.68 1.06 1.06 0 0 0 -.21-.59 1 1 0 0 0 -1.25-.24z"/><path d="m724.21 98a26.28 26.28 0 0 0 -5.36-2.53 24.19 24.19 0 0 0 -2.77-.77c-.51-.11-1-.19-1.56-.26a7 7 0 0 0 -1.52-.12 1.21 1.21 0 0 0 -.32 2.37c.9.24 1.92.25 2.84.4a23.69 23.69 0 0 1 2.63.57 24 24 0 0 1 5.08 2 1 1 0 0 0 1-1.69z"/><path d="m687.54 99a15.87 15.87 0 0 1 3.46-1.68 13.77 13.77 0 0 1 1.89-.48l.5-.08h.32a3.82 3.82 0 0 0 1.17-.18 1.15 1.15 0 0 0 .81-1.07 1.13 1.13 0 0 0 -.81-1.06 5.12 5.12 0 0 0 -2.48.16 13.45 13.45 0 0 0 -2.06.59 15 15 0 0 0 -2 .94 12.15 12.15 0 0 0 -1.87 1.4c-.82.7.24 2.08 1.15 1.49z"/><path d="m710.47 160.05a98 98 0 0 0 2.31 12.35l1.33 6.24c.35 1.68.43 4 1.58 5.36s2.76 1.41 4.3 1.55a41.53 41.53 0 0 0 5.23.14 44.82 44.82 0 0 0 10.3-1.59 43 43 0 0 0 18.07-10 9 9 0 0 0 2.71-4.18 10.78 10.78 0 0 0 -.67-5.77c-1.24-4-2.39-7.95-3.42-12a179.5 179.5 0 0 1 -5.05-27.86 1.53 1.53 0 1 0 -3 .41c1.11 7.57 2.35 15.13 4 22.6q1.23 5.37 2.71 10.68.76 2.76 1.62 5.51c.54 1.75 1.5 3.8 1.09 5.65a7.24 7.24 0 0 1 -2.58 3.48 37.08 37.08 0 0 1 -4.18 3.21 41.66 41.66 0 0 1 -27.25 6.81c-.65-.07-1.48-.08-1.86-.69a11.56 11.56 0 0 1 -.72-3.11l-1.4-6.22c-1-4.26-1.68-8.75-3.19-12.85-.35-1-2-.94-1.95.26z"/><path d="m693 107.2s0 0 0 0l-.1.25s0 0 0 0l-.16.22-.22.17h.07l-.26.11h-.3.09-.31a.23.23 0 0 1 .11 0l-.3-.13a1.18 1.18 0 0 0 .68.18h-.33.1l-.29-.13.07.05-.25-.2.09.09-.2-.25a.54.54 0 0 1 .07.13l-.13-.31a.73.73 0 0 1 .07.24v-.35a1.48 1.48 0 0 1 0 .42v-.36a1 1 0 0 1 -.08.31l.14-.32a.75.75 0 0 1 -.07.12l.21-.28 1.32-.35.32.14.27.21s0 0 0 0l.22.27s0 0 0 0l.13.32a.43.43 0 0 1 0 0 1 1 0 0 0 -.24-.46 1 1 0 0 0 -.39-.35 1 1 0 0 0 -.5-.16 1.1 1.1 0 0 0 -.54 0l-.33.14a1.33 1.33 0 0 0 -.48.49l-.14.32a1.46 1.46 0 0 0 0 .72s0 0 0 0l.07.18a1.3 1.3 0 0 0 .08.17.76.76 0 0 0 .11.14.58.58 0 0 0 .11.15l.28.21a1.63 1.63 0 0 0 .19.09l.2.08a1.34 1.34 0 0 0 1.32-.35c.06-.06.1-.12.15-.18s.1-.12.14-.19a2.8 2.8 0 0 0 .19-.43.25.25 0 0 1 0-.07 2.57 2.57 0 0 0 0-.4.76.76 0 0 0 0-.15 4.25 4.25 0 0 0 -.08-.61 1.82 1.82 0 0 0 -.07-.25 3.79 3.79 0 0 0 -.18-.42 3 3 0 0 0 -.27-.35 1.81 1.81 0 0 0 -.21-.18 1.12 1.12 0 0 0 -.22-.16l-.34-.14a2.21 2.21 0 0 0 -.37 0h-.08a1.27 1.27 0 0 0 -.34 0s-.27.11-.3.12l-.27.21a1.62 1.62 0 0 0 -.28.39 2.52 2.52 0 0 0 -.12.29v.3a1.24 1.24 0 0 0 0 .18 1.2 1.2 0 0 0 0 .2l.1.24a.87.87 0 0 0 .27.3.65.65 0 0 0 .23.13.9.9 0 0 0 .4.09h.27l.25-.1a.84.84 0 0 0 .29-.27.8.8 0 0 0 .19-.35z"/><path d="m715.45 107.2s0 0 0 0l-.11.25-.17.22-.22.17h.06l-.26.11h-.3.09-.31a.19.19 0 0 1 .1 0l-.29-.13a1.83 1.83 0 0 0 .32.14 2.09 2.09 0 0 0 .36 0h-.33.1l-.3-.13.08.05-.26-.2a.38.38 0 0 1 .09.09l-.2-.25a.57.57 0 0 1 .08.13l-.13-.31a1.05 1.05 0 0 1 .06.24v-.35a1.48 1.48 0 0 1 0 .42v-.36a1.41 1.41 0 0 1 -.08.31l.13-.32a.75.75 0 0 1 -.07.12l.22-.28 1.32-.35.33.14.28.21.21.27.14.32s0 0 0 0a1 1 0 0 0 -.24-.46 1 1 0 0 0 -.38-.35 1 1 0 0 0 -.51-.16 1.1 1.1 0 0 0 -.54 0l-.32.14a1.28 1.28 0 0 0 -.49.49l-.14.32a1.46 1.46 0 0 0 0 .72.06.06 0 0 1 0 0l.08.18a1.22 1.22 0 0 0 .07.17 1.71 1.71 0 0 0 .11.14 1 1 0 0 0 .12.15l.27.21a1.11 1.11 0 0 0 .19.09l.2.08a1.35 1.35 0 0 0 1.32-.35l.14-.18a1.33 1.33 0 0 0 .14-.19 2.08 2.08 0 0 0 .19-.43.64.64 0 0 0 0-.07c0-.12 0-.27.06-.4v-.15a4.25 4.25 0 0 0 -.08-.61 1 1 0 0 0 -.07-.25 2.53 2.53 0 0 0 -.18-.42 2.88 2.88 0 0 0 -.26-.35 1.32 1.32 0 0 0 -.22-.18 1.12 1.12 0 0 0 -.22-.16l-.33-.14a2.2 2.2 0 0 0 -.36 0h-.08a1.41 1.41 0 0 0 -.35 0s-.27.11-.3.12l-.27.21a.08.08 0 0 0 0 0 1.39 1.39 0 0 0 -.28.39 1.48 1.48 0 0 0 -.12.29v.3a.56.56 0 0 0 0 .18 1.18 1.18 0 0 0 0 .2l.1.24a.71.71 0 0 0 .27.3.61.61 0 0 0 .22.13.93.93 0 0 0 .4.09h.28l.25-.1a.94.94 0 0 0 .29-.27.78.78 0 0 0 .18-.35z"/><path d="m721.42 66.24a69.28 69.28 0 0 1 -50.85 23.11c.82-5.78 4-10.95 7.62-15.54 7.4-9.44 17.47-17.56 29.34-19.27 3.55-.54 7.37-.39 10.47 1.46s5.11 5.76 3.87 9.12"/><path d="m720.74 65.55a69 69 0 0 1 -37.83 21.23 66.41 66.41 0 0 1 -12.34 1.22l1.33 1.75c.79-4.93 3.19-9.32 6.1-13.31a63.62 63.62 0 0 1 9.35-10.32c6.54-5.79 15.34-10.74 24.34-10.39a10.44 10.44 0 0 1 7 2.6 6.39 6.39 0 0 1 1.91 6.47c-.51 1.59 1.94 2.24 2.48.68 1.63-4.7-1.58-9.57-5.88-11.4-4.82-2-10.55-1.16-15.4.36-9.8 3.06-18.05 10.08-24.37 18.05-3.85 4.86-7.28 10.25-8.2 16.49a1.42 1.42 0 0 0 1.34 1.76 70.61 70.61 0 0 0 42.14-14.91 68.29 68.29 0 0 0 9.4-8.91c.81-.93-.53-2.29-1.37-1.37z"/><path d="m722.58 64.5a33.32 33.32 0 0 0 7.52 31.77c2.27 2.41 5 4.69 5.8 7.91a14.72 14.72 0 0 1 -.27 6 8.59 8.59 0 0 1 5.07-5.3 6.67 6.67 0 0 1 7 1.58c1.85 2 2.06 5.11 1.19 7.69a20.35 20.35 0 0 1 -4.46 6.77 3.78 3.78 0 0 0 -1 1.72 3.72 3.72 0 0 0 .35 1.87l4.06 10.63c3.14-7.61 6.28-15.22 9.14-22.94a63.46 63.46 0 0 0 3.17-10.5 35.7 35.7 0 0 0 -23.51-40.37c-4.41-1.52-9.9-1.92-13.19 1.39"/><path d="m721.67 64.24a33.95 33.95 0 0 0 8.4 33.69 22.08 22.08 0 0 1 4 4.75c1.23 2.28.87 4.75.43 7.19a1.19 1.19 0 0 0 2.29.63c1.18-3.15 4.41-5.62 7.87-4.54s4.1 5.22 2.91 8.29a17.26 17.26 0 0 1 -3.16 4.85c-1.11 1.28-2.45 2.46-2.26 4.31s1.29 3.84 2 5.6l2.45 6.48a1.29 1.29 0 0 0 2.46 0c3.08-7.46 6.16-14.91 9-22.47 2.54-6.82 4.51-13.68 3.86-21a37.74 37.74 0 0 0 -20.63-30.28c-5.7-2.82-13.7-5.05-18.9 0-1.39 1.34.73 3.46 2.12 2.12 4.06-3.89 10.92-1.68 15.32.41a34 34 0 0 1 19.49 28c.58 6.89-1.22 13.27-3.59 19.67-2.85 7.72-6 15.33-9.12 22.94h2.39l-2.85-7.39c-.46-1.19-1-2.38-1.38-3.59s.53-2 1.36-3c2.63-3.09 5-6.8 4.32-11a7.46 7.46 0 0 0 -7.62-6.46c-4 .07-7 3-8.34 6.55l2.29.63c.42-2.3.82-4.7.16-7a13.07 13.07 0 0 0 -3.05-5c-1.38-1.62-2.89-3.03-4.24-4.62a30.89 30.89 0 0 1 -3.44-5.16 33 33 0 0 1 -2.71-24.09 1 1 0 0 0 -1.83-.51z"/><path d="m758.19 90a30.82 30.82 0 0 1 38.16-37.38c14.53 4.08 24.67 18.28 39.33 21.86a4.38 4.38 0 0 1 2.63 1.28 3.81 3.81 0 0 1 .23 3.08c-1.43 6.1-5 11.48-8.78 16.48-3.06 4-6.39 8-10.7 10.7s-9.78 3.91-14.54 2.14c-2.87-1.16-5.25-3.16-7.52-5.16l10.85 14.09a1.53 1.53 0 0 1 .44 1.23 1.5 1.5 0 0 1 -.75.76 38.47 38.47 0 0 1 -8.7 3.74 10 10 0 0 1 -3.5.54 9.89 9.89 0 0 1 -4.2-1.5c-11-6.3-17.18-18.38-23.13-29.61-2.3-4.35-5.43-9.2-10.33-9.66"/><path d="m759.38 89.63a30.25 30.25 0 0 1 9.14-28.95 29.77 29.77 0 0 1 29.05-5.68c9.79 3.42 17.3 11.18 26 16.46a49.66 49.66 0 0 0 6.87 3.54 34.12 34.12 0 0 0 3.44 1.2 12.48 12.48 0 0 1 2.69.74c.49.63-.45 2.79-.64 3.39a28.46 28.46 0 0 1 -1.71 4.22 55.27 55.27 0 0 1 -4.73 7.65c-3.71 5.17-8 10.81-14 13.39a14.51 14.51 0 0 1 -8.83 1c-3.23-.75-5.78-2.94-8.22-5.06a2.11 2.11 0 0 0 -2.71-.16 2 2 0 0 0 -.53 2.66c1.92 2.49 3.82 5 5.75 7.46l2.75 3.49c.5.65 1 1.29 1.52 1.94.24.3 1.12 1.21 1.11 1.39l.26-1c-.2.37-1.07.66-1.42.85-.53.29-1.07.57-1.61.83a31.28 31.28 0 0 1 -3.95 1.58c-2.43.81-4.46 1.27-6.83 0a35.23 35.23 0 0 1 -10.19-8.35c-5.93-6.82-9.58-15.09-14.2-22.76-2.46-4.09-5.71-8-10.73-8.49-2-.22-2 2.86 0 3.1 5.4.68 8 7.36 10.19 11.55a114.77 114.77 0 0 0 9 15.24 45 45 0 0 0 12.34 12c2.79 1.73 5.54 2.78 8.84 2.09a36.76 36.76 0 0 0 9.68-3.78c1.73-.94 3.25-2.38 2.18-4.5a33 33 0 0 0 -3.33-4.53c-2.57-3.41-5.18-6.81-7.79-10.2l-3.24 2.5a29.62 29.62 0 0 0 8.09 5.5 16.66 16.66 0 0 0 9.53.63c6.5-1.32 11.66-5.88 15.76-10.85s8.2-10.54 10.57-16.72c1-2.67 2.54-6.66.16-9.05a8.08 8.08 0 0 0 -3.89-1.72 32.45 32.45 0 0 1 -4-1.33c-10.46-4.31-18.37-13-28.57-17.87a33.85 33.85 0 0 0 -17-3.41 33.37 33.37 0 0 0 -16.54 5.7 32.58 32.58 0 0 0 -12.67 35 1.23 1.23 0 0 0 2.38-.65z"/><path d="m704.78 188.25a26.35 26.35 0 0 0 -1.19-12.94 3 3 0 0 1 -.22-2.12 2.77 2.77 0 0 1 1.36-1.18l7.11-3.78c1.23 1.19.11 3.36.72 5 .76 2 3.58 2.06 5.71 1.68a125.62 125.62 0 0 0 25.89-7.41 18.15 18.15 0 0 0 6.41-3.85c1.74-1.82 2.75-4.54 1.89-6.9-.47-1.28-1.39-2.84-.43-3.81a2.7 2.7 0 0 1 1.52-.6 109.26 109.26 0 0 1 11.28-1.24c1.2-.07 2.61 0 3.33.94a3.86 3.86 0 0 1 .54 2c.7 8.45 5.39 27 8.95 34.73" fill="#18c4ff"/><path d="m705.68 188.5a28.07 28.07 0 0 0 -.27-11.58c-.18-.75-.87-2-.8-2.82s1.68-1.28 2.32-1.62l5.65-3-1.78-.22c.43.49.13 1.6.1 2.19a5.22 5.22 0 0 0 .5 2.76 4.78 4.78 0 0 0 3.77 2.25 17.27 17.27 0 0 0 5.35-.52q3.5-.67 6.94-1.53a124.78 124.78 0 0 0 13.11-4c3.81-1.42 8.3-2.83 11.11-5.93a9.31 9.31 0 0 0 2.39-4.81 7.27 7.27 0 0 0 -.06-2.59 7.41 7.41 0 0 0 -.41-1.26c-.15-.37-.64-1.23-.57-1.66.09-.59 1.83-.6 2.36-.68 1.26-.18 2.52-.33 3.78-.47a39.3 39.3 0 0 1 6.67-.46c.85.06 1.2.29 1.33 1.14.09.66.11 1.34.19 2 .15 1.37.36 2.75.58 4.12.54 3.25 1.22 6.48 2 9.68 1.64 6.77 3.46 13.7 6.38 20.05.84 1.82 3.51.24 2.69-1.57-2.55-5.56-4.12-11.66-5.6-17.58-.81-3.27-1.57-6.57-2.21-9.88-.28-1.44-.53-2.88-.74-4.33a22.51 22.51 0 0 0 -.54-3.94c-.6-1.82-2.26-2.57-4.07-2.65a44.5 44.5 0 0 0 -6.91.55 34.52 34.52 0 0 0 -6.58 1 3.16 3.16 0 0 0 -2 4.13 20 20 0 0 1 .93 2.73 5.08 5.08 0 0 1 -.45 2.74 9.18 9.18 0 0 1 -4.37 4.13 71.28 71.28 0 0 1 -12.75 4.82 132 132 0 0 1 -15.18 3.66c-1.17.21-3.94.81-4.62-.61-.37-.76 0-1.9 0-2.7a4.14 4.14 0 0 0 -1-2.83 1.47 1.47 0 0 0 -1.77-.23c-2.09 1.12-4.18 2.21-6.26 3.35-1.83 1-3.39 2.16-2.8 4.49.26 1 .73 2 1 3a25.26 25.26 0 0 1 .77 3.53 26.72 26.72 0 0 1 0 6.92c-.13 1 1.65 1.29 1.84.25z" fill="#18c4ff"/><path d="m705.68 188.5a28 28 0 0 0 -.25-11.59c-.12-.51-.26-1-.41-1.53-.11-.35-.44-.93-.38-1.28.15-.86 1.63-1.26 2.29-1.61l5.65-3-1.78-.23c.37.43.15 1.31.12 1.83a6.8 6.8 0 0 0 .11 2.16 4.08 4.08 0 0 0 2.4 2.75c2.71 1.18 6 .17 8.72-.39a125.22 125.22 0 0 0 21.51-6.44c2.9-1.18 6-2.44 8.16-4.85a8.29 8.29 0 0 0 1.88-8.32c-.14-.36-.77-1.45-.65-1.85s1.34-.49 1.86-.57c2-.3 4-.52 6-.7a25.53 25.53 0 0 1 5.09-.27c.61.07.93.17 1.09.79a20.05 20.05 0 0 1 .28 2.9 74.28 74.28 0 0 0 6.48 23c.84 1.81 3.51.24 2.69-1.57a72.67 72.67 0 0 1 -6-21 25.19 25.19 0 0 0 -.59-4.52 3.9 3.9 0 0 0 -3.45-2.63 21.77 21.77 0 0 0 -4.63.19q-2.91.27-5.79.69c-1.52.21-3.59.19-4.83 1.21a3.39 3.39 0 0 0 -.76 3.95c.5 1.47 1.1 2.6.67 4.18a7.38 7.38 0 0 1 -2.87 4c-2.84 2.1-6.53 3.22-9.81 4.37-3.43 1.21-6.91 2.25-10.42 3.15q-3.21.81-6.47 1.47a26.94 26.94 0 0 1 -5.26.84c-1.36 0-2.48-.25-2.49-1.78 0-1.74.27-3.2-1-4.63a1.51 1.51 0 0 0 -1.79-.23l-6.25 3.36c-1.86 1-3.44 2.13-2.83 4.5.26 1 .73 2 1 3a24.65 24.65 0 0 1 .77 3.53 26.21 26.21 0 0 1 0 6.91c-.13 1 1.65 1.29 1.84.25z"/><g fill="#18c4ff"><path d="m599.4 916.6c7.91.59 15.16 4.2 22.6 6.65a39.61 39.61 0 0 0 11.66 2.17 50.61 50.61 0 0 0 6.85-.43 31.49 31.49 0 0 0 6.66-1.07 1.18 1.18 0 0 0 -.31-2.31 20.65 20.65 0 0 0 -3.41.35c-1.14.14-2.28.25-3.43.34a43.52 43.52 0 0 1 -6.85.06 50.08 50.08 0 0 1 -11.34-2.49c-7.35-2.36-14.56-5.57-22.43-5.45a1.09 1.09 0 0 0 0 2.18z"/><path d="m874.18 912.23c4.87-1.21 9.89-.79 14.86-.73a44.31 44.31 0 0 0 12.86-1.6 44.84 44.84 0 0 0 11.38-5.07c3.48-2.17 7.11-4.85 9.44-8.27.87-1.29-1-2.45-2-1.57-3.18 2.69-6 5.53-9.59 7.71a42.29 42.29 0 0 1 -10.94 4.66 51.29 51.29 0 0 1 -12.52 1.54c-4.71.08-9.45 0-14 1.36a1 1 0 0 0 .55 2z"/><path d="m780 172.27c23.79 5.09 54.83 22.91 69.65 42.2 10.94 14.24 17.74 30.54 26 46.29 12.93 24.54 29.29 53 32 81.05 2.17 22.53-11.27 40.24-28.86 52.73-30 21.35-66.61 29.62-102.9 31-24.19.94-57.76-.3-65.77-28.77-4.18-14.84.88-31.93 14.63-39.89 9.79-5.67 21.25-7.57 32.43-9.25 16.58-2.49 33.3-4.81 49.37-9.76 13.29-4.09 27.47-5.67 30.11-22.22 2.54-16-9.89-31.33-17.22-43.8a343.37 343.37 0 0 1 -20.04-38.85"/><path d="m779.76 173.2a122.49 122.49 0 0 1 31.81 12.55 133.68 133.68 0 0 1 29 20.82c9.06 8.77 15.6 19.58 21.4 30.68 3.15 6 6.09 12.19 9.14 18.29s6.11 11.81 9.2 17.71c6.36 12.13 12.66 24.34 17.54 37.17a143.39 143.39 0 0 1 6 19.36 72.89 72.89 0 0 1 2.15 18.65c-.92 23.9-20.44 40.83-39.7 51.91-22.64 13-48.43 19.72-74.29 22.28a237.27 237.27 0 0 1 -31.65 1.2c-9-.33-18.16-1.44-26.65-4.66-8.07-3.07-15.14-8.29-19.26-16a36 36 0 0 1 -1.81-29.8 30.94 30.94 0 0 1 9.17-12.69c4.89-4 11.12-6.35 17.13-8a165.08 165.08 0 0 1 20.1-3.89c7.19-1.09 14.37-2.15 21.52-3.43a311.85 311.85 0 0 0 36.78-9.19c4.24-1.3 8.54-2.87 12.12-5.53a21.14 21.14 0 0 0 7.71-11c3.64-11.91-1.57-23.82-7.56-34-3-5.15-6.39-10.1-9.41-15.25-3.65-6.24-7.18-12.54-10.51-19s-6.34-12.64-9.12-19.13c-.67-1.57-3-.22-2.3 1.34a341 341 0 0 0 20.25 39.26c6.23 10.52 14.21 20.63 16.63 32.9 1.07 5.43.76 11.45-1.81 16.44a20.26 20.26 0 0 1 -9.62 8.8c-4.26 2.05-8.9 3.22-13.44 4.49-6.47 1.82-12.89 3.74-19.47 5.16-14.15 3.05-28.54 4.56-42.76 7.13-12.11 2.19-25.34 5.88-33.22 16-6.74 8.68-8.69 20-6.76 30.62a36 36 0 0 0 14.78 23.13c7.52 5.29 16.68 7.73 25.68 8.95a157.67 157.67 0 0 0 27.65.9c26.52-1.05 53.14-5.73 77.52-16.49a136.9 136.9 0 0 0 32.79-19.88c8.68-7.29 16.08-16.33 20.15-27a49.4 49.4 0 0 0 3.2-16.74 79.51 79.51 0 0 0 -2.52-19.16c-3.18-13.54-8.68-26.44-14.77-38.9s-12.9-24.33-19.14-36.61-12.17-24.77-20.26-36c-6.89-9.53-15.65-17.32-25.29-24a146.17 146.17 0 0 0 -32.21-16.83 105.41 105.41 0 0 0 -15.38-4.5c-1.21-.25-1.73 1.58-.51 1.86z"/></g><path d="m756 415.28a58.72 58.72 0 0 0 37.81 12.46c7.54-.2 15-1.73 22.33-3.48s14.43-3.84 21.47-6.29q5.73-2 11.34-4.29a107 107 0 0 0 11.41-5.11c1.38-.76.43-3.22-1.1-2.61-3.31 1.32-6.52 2.94-9.81 4.32s-6.62 2.69-10 3.91q-10.08 3.68-20.48 6.37c-13.66 3.54-27.85 6.25-41.79 2.66a59.07 59.07 0 0 1 -20-9.48c-.89-.65-2.07.85-1.19 1.54z"/><path d="m725.61 358.44c5.16-3.16 11.57-3.72 17.38-4.88l19.49-3.88c12-2.38 24.1-4.41 35.82-7.86 10.67-3.13 21.64-7.74 29.86-15.44a24.27 24.27 0 0 0 7.67-14.06 33 33 0 0 0 -2-16.23c-4.66-12.53-15-21.58-22.08-32.62-.88-1.36-3.06-.1-2.18 1.27 6.25 9.69 15 17.73 20.16 28.13a33.94 33.94 0 0 1 3.89 15.74 21.88 21.88 0 0 1 -6.1 14.5c-7.45 8.07-18.35 12.73-28.66 15.91-11.13 3.43-22.69 5.41-34.1 7.7l-21.68 4.34c-6.17 1.24-13.16 2-18.39 5.79-.94.68-.1 2.23.93 1.59z"/><path d="m719.05 381.1c-10.4 4.64-21.81 7.5-33.16 6.55-10.59-.88-21.81-6.09-25.63-16-.82-2.12-1.22-4.64 0-6.55s3.78-2.66 6.07-2.46a32.35 32.35 0 0 1 6.63 1.84 30.29 30.29 0 0 0 17 .27l-6.1-2.25a3.61 3.61 0 0 1 -2.32-1.69c-.73-1.78 1.51-3.28 3.35-3.82 6.79-2 14-2.22 21-1.95 4.1.16 8.27.51 12.09 2s7.28 4.37 8.67 8.23.22 8.75-3.27 10.92" fill="#fff"/><path d="m718.51 380.18c-12.39 5.36-27.09 8.62-40.37 4.64a27.74 27.74 0 0 1 -13.82-8.73c-1.75-2.18-3.48-5.14-3.54-8-.08-3.43 3.22-4.59 6.12-4.14a40 40 0 0 1 5.73 1.69 31.48 31.48 0 0 0 17.66.3 1.25 1.25 0 0 0 0-2.4 68.66 68.66 0 0 1 -6.72-2.53c-2.23-1.11.7-2.5 1.9-2.84a56.23 56.23 0 0 1 14.78-1.9c8.14-.12 19.74-.29 24.43 7.83 2 3.5 1.65 8.65-1.89 11.07-1.26.87-.11 2.92 1.22 2.08a10.46 10.46 0 0 0 4-12c-1.48-4.69-5.64-8-10.11-9.63-5.66-2.12-12.18-2.1-18.15-2a68.28 68.28 0 0 0 -9 .73c-2.63.39-5.71.8-8.06 2.14-2 1.15-3.61 3.69-1.71 5.73a8.92 8.92 0 0 0 3.65 1.86l5 1.83v-2.4a29.3 29.3 0 0 1 -11.93.76c-3.89-.57-7.47-2.56-11.38-2.91-2.94-.26-6.26.9-7.54 3.75-1.38 3.06-.11 6.62 1.36 9.39 6.22 11.74 21.32 15.36 33.57 14.5a75.8 75.8 0 0 0 25.88-7c1.25-.57.16-2.38-1.08-1.84z"/><ellipse cx="650.68" cy="360.64" rx="80.31" ry="7.75"/><path d="m728.3 360.64a1.55 1.55 0 0 1 .27-1c-.25.46.51-.6.14-.17s.17-.1.14-.09a3.5 3.5 0 0 0 -.49.29 5.85 5.85 0 0 0 -.56.28c-.07 0 .66-.25.16-.07l-.41.15c-.57.21-1.15.38-1.74.55-1.56.43-3.15.76-4.74 1.05-1 .18-2 .35-3 .5l-1.51.23-1.43.19c-12.37 1.6-24.88 2.24-37.34 2.67q-24.28.84-48.62.18c-13.13-.35-26.29-.95-39.35-2.42-2.63-.29-4.27-.5-6.66-.87-1.84-.28-3.68-.6-5.49-1a29.71 29.71 0 0 1 -3.93-1.09c-.4-.15-.73-.43-.14 0-.18-.12-.41-.19-.61-.3a3.5 3.5 0 0 0 -.49-.29s.49.51.12.07.4.63.17.21c-.08-.15.29.78.2.46s.06.83.06.47a1.46 1.46 0 0 1 -.26 1c.23-.41-.52.62-.15.19s-.16.1-.14.09a4.15 4.15 0 0 0 .53-.32 5.94 5.94 0 0 0 .57-.27c-.63.42-.19.08.2-.06a50.91 50.91 0 0 1 9.61-2.12l1.51-.22.79-.11.51-.07 3.75-.45c2.76-.31 5.53-.57 8.3-.8 6.61-.55 13.23-.93 19.86-1.21 16.07-.69 32.18-.83 48.26-.52 13.76.26 27.54.81 41.24 2.14 2.55.25 5.1.53 7.64.86l.55.07c-.06 0-.36-.05-.05 0l.79.11 1.63.25c1 .15 2 .32 3 .5 1.58.29 3.16.62 4.71 1.06.58.16 1.15.33 1.72.54l.35.13c.5.18-.2-.1-.16-.07s.42.19.6.3a3 3 0 0 0 .45.27s-.51-.51-.14-.09-.38-.61-.15-.19a1.56 1.56 0 0 1 -.26-1c.11 3.46 5.48 3.47 5.37 0-.09-2.85-3-4.07-5.34-4.81a63.08 63.08 0 0 0 -10.74-2.16 376.54 376.54 0 0 0 -38.7-3q-25.29-.92-50.63-.19c-13.51.38-27.07 1-40.5 2.63a103.87 103.87 0 0 0 -12.77 2.15c-2.3.57-5.43 1.32-6.78 3.5-1.55 2.52.45 4.88 2.72 5.89a38.74 38.74 0 0 0 9.6 2.47c12 2 24.2 2.69 36.32 3.23 16.73.75 33.49.9 50.23.56 14.22-.29 28.46-.85 42.61-2.33 4.77-.5 9.55-1.07 14.26-2 2.53-.51 5.5-1.06 7.67-2.56a4.21 4.21 0 0 0 2-3.36c.15-3.48-5.22-3.48-5.33-.03z"/><path d="m674.43 238c-5.13 9.07-5.63 20.15-5.92 30.33a299.67 299.67 0 0 0 1.23 34.42c.55 6.36 1 12.79 2 19.09.2 1.27 2.26 1 2.22-.3-.16-5.61-.85-11.22-1.28-16.81s-.79-11.05-1.06-16.59a225.12 225.12 0 0 1 .42-32.85c.55-5.57 1.69-11.16 4.37-16.12.71-1.31-1.26-2.48-2-1.17z"/><path d="m466 345.63a142.47 142.47 0 0 0 -13.85-6.13c-3.21-1.22-6.7-2.33-10-1.46s-5.84 3.59-8.14 6.17c-1.66 1.87-3.37 3.82-4.08 6.22s-.15 5.37 2 6.68c1.94 1.2 4.51.68 6.54-.36s3.82-2.56 5.95-3.38a22.32 22.32 0 0 0 17.12 20.94c4.2.9 9.24.19 11.65-3.35 1.76-2.58 1.68-6 1.19-9-.67-4.19-4.64-8.89-6.53-12.69" fill="#fff"/><path d="m473.78 372.93c2.56-3.94 1.69-8.63.43-12.85a42.07 42.07 0 0 0 -2.4-6.55c-.55-1.11-1.14-2.21-1.75-3.29a13.18 13.18 0 0 0 -2-3c-.88-.87-2.61 0-2.17 1.27.7 2 2.09 3.82 2.94 5.78s1.69 3.94 2.36 6c1.23 3.75 2.18 8.12.74 11.93-.42 1.12 1.25 1.7 1.84.78z"/><path d="m466.53 344.76a114.5 114.5 0 0 0 -14-6.61c-4.47-1.74-9.26-2.89-13.66-.31a22.08 22.08 0 0 0 -5 4.29 34.39 34.39 0 0 0 -4.26 5.29c-2 3.34-2.34 8.32 1.2 10.82a7.36 7.36 0 0 0 6.87.45c2.54-1 4.55-2.9 7-3.94l-1.68-1.38c.09 3.69 1 8 3.26 11 .79 1.05 3 .5 2.38-1a50.77 50.77 0 0 1 -2-4.82 19.51 19.51 0 0 1 -.8-5.2c0-.84-.92-1.75-1.81-1.39a37 37 0 0 0 -5 2.76c-1.54.91-3.38 1.82-5.23 1.47a3.38 3.38 0 0 1 -2.62-3.22 7.38 7.38 0 0 1 1.49-4.78 33.78 33.78 0 0 1 3.61-4.31 18.69 18.69 0 0 1 4.11-3.52c3.64-2.12 7.75-.87 11.43.48 4.64 1.71 9.22 3.57 13.71 5.64 1.16.54 2.17-1.1 1-1.74z"/><g fill="#fff"><path d="m594.17 318.48a59.68 59.68 0 0 1 6.89 8.25 1.06 1.06 0 1 0 1.83-1.07 61.67 61.67 0 0 0 -7.35-8.54c-.9-.86-2.25.48-1.37 1.36z"/><path d="m600 314a18.66 18.66 0 0 1 3.34 2.3 19.57 19.57 0 0 1 2.76 2.95 1 1 0 0 0 1.42.27 1 1 0 0 0 .1-1.45 20.79 20.79 0 0 0 -6.71-5.62.9.9 0 1 0 -.91 1.55z"/><path d="m844.14 313.11a23.5 23.5 0 0 1 3.27-.73 17.69 17.69 0 0 1 3.49-.09 1 1 0 1 0 0-2.07 15.53 15.53 0 0 0 -7.5 1.15 1 1 0 0 0 .74 1.74z"/><path d="m846.4 322.86a6.45 6.45 0 0 0 2.53-.79 6.93 6.93 0 0 0 1.05-.75 4.5 4.5 0 0 0 .85-1 1.07 1.07 0 0 0 -1.67-1.29 9.75 9.75 0 0 1 -1 .92l.23-.18a5.56 5.56 0 0 1 -1.18.68l.27-.11a5.4 5.4 0 0 1 -1.31.35h.3-.06a1.22 1.22 0 0 0 -.79.33 1.11 1.11 0 0 0 0 1.58 1.07 1.07 0 0 0 .79.33z"/><path d="m720 181c2.24 10-.15 20.11-2.55 29.82-1.24 5-2.49 10-3.23 15a111.53 111.53 0 0 0 -1.08 15.6c0 10.72.87 21.46 1.57 32.15s1.53 21.66 2.39 32.49c1 12.23 1.95 24.46 3.14 36.67.12 1.27 2.11 1.3 2 0-1.64-21.81-3.29-43.62-4.75-65.44-.72-10.8-1.64-21.63-1.83-32.46a122.58 122.58 0 0 1 .64-16 131.35 131.35 0 0 1 2.95-15.34c2.54-10.78 5.42-22 2.55-33a.94.94 0 0 0 -1.81.5z"/><path d="m721.91 351.15h1a.72.72 0 0 0 .35-.08.94.94 0 0 0 .56-.83v-.24a.84.84 0 0 0 -.23-.4.93.93 0 0 0 -.64-.27h-1a.67.67 0 0 0 -.35.08.73.73 0 0 0 -.3.19.59.59 0 0 0 -.18.29.6.6 0 0 0 -.08.35v.24a.84.84 0 0 0 .23.4.93.93 0 0 0 .65.27z"/></g><path d="m280.06 279a6.37 6.37 0 0 0 6.92-5.89 18.15 18.15 0 0 0 -.47-3.43 3.5 3.5 0 0 1 .28-2.62c1-1.31 3.75-.17 5.12-.14 1.58 0 3.45-.44 4.35-1.85 1-1.59.32-3.16-.2-4.77-.29-.89-.11-.86.73-1.19a4 4 0 0 0 2-1.52 3.88 3.88 0 0 0 -.36-4.69 1.4 1.4 0 0 0 -1.39-.36 3.6 3.6 0 0 0 -1.82 1.39c-.92 1.24 1.1 2.77 2.13 1.65a.52.52 0 0 1 .45-.29l-1.61-.66c1.1 1.54-.7 1.73-1.72 2.34a3.22 3.22 0 0 0 -1.31 3.81c.26 1 1.43 2.54.11 3.1s-2.93-.05-4.24-.17a4.93 4.93 0 0 0 -4.26 1.37 5.45 5.45 0 0 0 -1 4.53c.29 1.81 1.32 3.72.23 5.45a4.49 4.49 0 0 1 -4 2c-1.25-.05-1.22 1.83 0 1.93z" fill="#18c4ff"/><path d="m269.3 244c-4.76-20.73-18.21-38.89-36-50.35a79.72 79.72 0 0 0 -29.62-11.65c-10.67-1.82-22.66-1.6-32.13 4.27-10.83 6.7-14.71 19.7-15.78 31.71a143.25 143.25 0 0 0 .07 20.82q.63 11.07 1.44 22.12 3.21 44.13 9.07 88 2.93 21.86 6.49 43.63c2.35 14.29 4.7 28.63 8 42.74 2.52 10.72 5.21 23 13.18 31.14a19.64 19.64 0 0 0 12.48 6.11c5.47.42 10.78-2 14.85-5.47 9.88-8.47 10.92-22.37 11.09-34.49a262.38 262.38 0 0 0 -3-43.1c-3.53-23.12-12.17-48.8-36.15-57.65-10.48-3.87-22.12-2.84-31.29 3.73-9.56 6.86-15.26 17.58-18.11 28.79-3.35 13.16-3.8 27.19-4 40.71a368.27 368.27 0 0 0 1.83 42.91 487.26 487.26 0 0 0 16.4 83.83c1.92 6.81 3.93 13.61 6.13 20.34 1.74 5.32 4 10.72 8.56 14.22 5 3.79 11.51 5 17.48 6.32a166 166 0 0 0 20.93 3.06c13 1 26.9 1.21 39.51-2.45a42.11 42.11 0 0 0 26-21c5.73-10.73 7.95-23 9.2-35 1.52-14.5 1.18-29.12.18-43.64s-2.69-29.24-3.89-43.87c-.27-3.33-.66-6.71-.68-10.06 0-3.53 1.29-5.81 4.52-7.29 6.28-2.9 13.21-4.85 19.87-6.67a187.74 187.74 0 0 1 20.73-4.42 100 100 0 0 1 18-1.54c5.3.15 10.81 1 15.44 3.74 5.43 3.19 8.08 8.6 9.57 14.52 1.73 6.88 2.88 13.95 4.09 20.93q1.92 11.07 3.41 22.2 1.44 10.74 2.47 21.55.54 5.49 1 11c.24 3.17 1.57 7.78-1.9 9.52a76.61 76.61 0 0 1 -9.66 3.58 103.82 103.82 0 0 1 -10.08 2.87 47.07 47.07 0 0 1 -19.12.94 28.77 28.77 0 0 1 -15.64-7.79c-4.33-4.43-6.59-10.44-7.53-16.48-1.84-11.67.63-26.52 12.13-32.43a15.54 15.54 0 0 1 15.38.25c4 2.48 6.58 6.77 8.21 11.11a61.79 61.79 0 0 1 3.3 14.72c.8 6.88 1.33 13.79 2 20.69l4.25 44.69 2.02 21.59c.33 3.46.66 6.92 1 10.37.19 1.86.41 3.73.57 5.59a2.57 2.57 0 0 1 -.12 1.58c-.13.24-.46.43-.56.64l-.14.1c-.52.29-.17.54 1.06.76.22-1.89-2.75-1.88-3 0a2 2 0 0 0 2.91 2.07 4.87 4.87 0 0 0 2.93-4.35c0-3.68-.64-7.51-1-11.18s-.71-7.44-1.07-11.17l-4.21-44.29-2.13-22.35c-.59-6.27-1-12.59-2-18.82-1.31-8.95-4.24-19.24-12.24-24.38-9.48-6-21.57-1.27-27.5 7.43-6.51 9.57-7 23.44-3.47 34.2 3.71 11.45 13.14 18.8 24.91 20.66 13.11 2.06 26-2.42 38.08-7 2.34-.89 4.77-2 5.68-4.5 1.08-3 .21-6.8 0-9.88q-.87-11-2.16-22-2.53-21.56-6.62-42.9c-1.21-6.29-2.12-13-5.27-18.73a22.22 22.22 0 0 0 -11.46-9.81c-10.48-4.2-22.67-2.38-33.47-.64a188.25 188.25 0 0 0 -20.72 4.6 135.87 135.87 0 0 0 -19.24 6.56 10.07 10.07 0 0 0 -5.41 4.88c-1.21 2.71-.94 5.76-.74 8.64.5 7.31 1.17 14.61 1.86 21.91 2.7 28.53 6.06 57.95.12 86.31-2.36 11.29-6.63 22.91-15.44 30.78-9.51 8.5-22.83 10.42-35.11 10.84a159.86 159.86 0 0 1 -42.6-4.24c-6.14-1.46-12.5-3.22-16.17-8.77-3.55-5.35-5-12.2-6.82-18.27-8.29-27.5-14.8-55.62-18.35-84.14a381.92 381.92 0 0 1 -2.99-42.5c-.17-14.07.1-28.49 2.39-42.4 2-12.22 6.45-24.45 16.12-32.7 9-7.65 20.85-9 31.68-4.69 24.9 9.87 31.25 39.06 34.08 62.8 1.69 14.22 2.58 28.89 1.44 43.19-.91 11.54-6 26.6-19.63 27.95-11.28 1.11-17.71-10.37-20.87-19.46-4.56-13.15-6.85-27.2-9.26-40.87q-7.71-43.74-12.82-87.89c-3.36-29.15-6.21-58.52-7.4-87.85-.53-13-.27-28.67 8.62-39.19 7.69-9.1 20.58-10.75 31.77-9.57 21.63 2.28 41.75 14.79 54.69 32.07a77.79 77.79 0 0 1 13.36 28.14c.31 1.32 2.32.76 2-.56z" fill="#18c4ff"/><g fill="#fff"><path d="m643.91 619.07c-5.89 26.3-10.9 52.82-14.78 79.49q-1.65 11.3-3 22.63c-.16 1.3 1.88 1.28 2 0q5.08-40 12.93-79.56 2.21-11.05 4.64-22.07c.26-1.16-1.52-1.65-1.78-.49z"/><path d="m640.85 732 7-4.05a.93.93 0 0 0 -.94-1.6l-7 4a.93.93 0 0 0 .94 1.6z"/><path d="m737.21 593.53q5.4 30.51 9.85 61.16t8 61.65q2 17.42 3.69 34.85c.12 1.25 2.08 1.26 2 0q-3-31.07-7-62t-8.87-61.56q-2.79-17.35-5.88-34.63c-.21-1.18-2-.68-1.81.5z"/><path d="m767.64 772.05 8-2c1.17-.28.67-2.1-.5-1.8l-8 2a.91.91 0 0 0 .49 1.75z"/><path d="m789.25 776.08 9-8a1.13 1.13 0 1 0 -1.6-1.6l-9 8a1.15 1.15 0 0 0 1.62 1.63z"/><path d="m877.46 665.49 13 43c.37 1.22 2.29.7 1.91-.53l-13-43a1 1 0 0 0 -1.83.51z"/><path d="m905.66 732.16 5-1a1 1 0 0 0 .72-1.27 1.05 1.05 0 0 0 -1.27-.72l-5 1a1 1 0 0 0 -.72 1.27 1.06 1.06 0 0 0 1.27.73z"/></g></svg>